<svg width="61" height="60" viewBox="0 0 61 60" fill="none" xmlns="http://www.w3.org/2000/svg">
<g id="search_off">
<g id="Vector">
<path d="M42.6126 35.6377H40.6376L39.9376 34.9627C42.3876 32.1127 43.8626 28.4127 43.8626 24.3877C43.8626 15.4127 36.5876 8.1377 27.6126 8.1377C19.0626 8.1377 12.0626 14.7377 11.4376 23.1377H16.4876C17.1126 17.5127 21.8126 13.1377 27.6126 13.1377C33.8376 13.1377 38.8626 18.1627 38.8626 24.3877C38.8626 30.6127 33.8376 35.6377 27.6126 35.6377C27.1876 35.6377 26.7876 35.5627 26.3626 35.5127V40.5627C26.7876 40.6127 27.1876 40.6377 27.6126 40.6377C31.6376 40.6377 35.3376 39.1627 38.1876 36.7127L38.8626 37.4127V39.3877L51.3626 51.8627L55.0876 48.1377L42.6126 35.6377Z" fill="#9F9F9F"/>
<path d="M20.0376 27.6877L13.8626 33.8627L7.6876 27.6877L5.9126 29.4627L12.0876 35.6377L5.9126 41.8127L7.6876 43.5877L13.8626 37.4127L20.0376 43.5877L21.8126 41.8127L15.6376 35.6377L21.8126 29.4627L20.0376 27.6877Z" fill="#9F9F9F"/>
</g>
</g>
</svg>
