<svg width="24" height="25" viewBox="0 0 24 25" fill="none" xmlns="http://www.w3.org/2000/svg">
<g id="favorite_border">
<path id="Vector" d="M19.6602 4.66717C17.0202 2.86717 13.7602 3.70717 12.0002 5.76717C10.2402 3.70717 6.98021 2.85717 4.34021 4.66717C2.94021 5.62717 2.06021 7.24717 2.00021 8.95717C1.86021 12.8372 5.30021 15.9472 10.5502 20.7172L10.6502 20.8072C11.4102 21.4972 12.5802 21.4972 13.3402 20.7972L13.4502 20.6972C18.7002 15.9372 22.1302 12.8272 22.0002 8.94717C21.9402 7.24717 21.0602 5.62717 19.6602 4.66717ZM12.1002 19.2272L12.0002 19.3272L11.9002 19.2272C7.14021 14.9172 4.00021 12.0672 4.00021 9.17717C4.00021 7.17717 5.50021 5.67717 7.50021 5.67717C9.04021 5.67717 10.5402 6.66717 11.0702 8.03717H12.9402C13.4602 6.66717 14.9602 5.67717 16.5002 5.67717C18.5002 5.67717 20.0002 7.17717 20.0002 9.17717C20.0002 12.0672 16.8602 14.9172 12.1002 19.2272Z" fill="#1B1B1B"/>
</g>
</svg>
